# xmcd CD database file
#
# Track frame offsets:
#	150
#	23599
#	45694
#	66024
#	82557
#	102370
#	136379
#	165519
#	191613
#
# Disc length: 3308 seconds
#
# Revision: 0
# Processed by: cddbd v1.5.2PL0 Copyright (c) Steve Scherf et al.
# Submitted via: CDex 1.51
#
DISCID=650cea09
DTITLE=Lyle Lovett - 2012 Live From Celebrate Brooklyn [2|2]
DYEAR=2012
DGENRE=Blues
TTITLE0=Lyle Lovett - Night's Lullaby
TTITLE1=Lyle Lovett - Up In Indiana
TTITLE2=Lyle Lovett - Let Me Fall
TTITLE3=Lyle Lovett - If I Had A Boat
TTITLE4=Lyle Lovett - She's No Lady
TTITLE5=Lyle Lovett - North Dakota
TTITLE6=Lyle Lovett - That's Right (You're Not From
TTITLE7=Lyle Lovett - White Freightliner Blues
TTITLE8=Lyle Lovett - Can't Resist It
EXTD=YEAR: 2012
EXTT0=
EXTT1=
EXTT2=
EXTT3=
EXTT4=
EXTT5=
EXTT6=
EXTT7=
EXTT8=
PLAYORDER=
